<svg xmlns="http://www.w3.org/2000/svg" xmlns:xlink="http://www.w3.org/1999/xlink" version="1.1" x="0px" y="0px" width="100px" height="100px" viewBox="5.0 -10.0 100.0 135.0" enable-background="new 0 0 100 100" xml:space="preserve">
<g id="Captions">
</g>
<g id="Your_Icon">
	<path d="M78.416,95.454H17.053V34.091c0-1.255-1.018-2.272-2.273-2.272c-1.255,0-2.272,1.018-2.272,2.272v63.637   c0,1.255,1.018,2.272,2.272,2.272h63.637c1.255,0,2.272-1.018,2.272-2.272C80.688,96.472,79.671,95.454,78.416,95.454z"/>
	<path d="M22.481,93.182h7.514c1.743,0,3.156-1.413,3.156-3.156V50.884c0-1.743-1.413-3.156-3.156-3.156h-7.514   c-1.743,0-3.156,1.413-3.156,3.156v39.142C19.325,91.769,20.738,93.182,22.481,93.182z"/>
	<path d="M38.391,93.182h7.323c1.743,0,3.157-1.413,3.157-3.156v-45.96c0-1.743-1.414-3.156-3.157-3.156h-7.323   c-1.743,0-3.156,1.413-3.156,3.156v45.96C35.234,91.769,36.647,93.182,38.391,93.182z"/>
	<path d="M54.3,93.182h7.323c1.743,0,3.156-1.413,3.156-3.156V34.975c0-1.743-1.413-3.156-3.156-3.156H54.3   c-1.743,0-3.156,1.413-3.156,3.156v55.051C51.144,91.769,52.557,93.182,54.3,93.182z"/>
	<path d="M87.493,11.364L73.87,0L60.248,11.364h6.805v78.661c0,1.743,1.413,3.156,3.156,3.156h7.323   c1.743,0,3.156-1.413,3.156-3.156V11.364H87.493z"/>
</g>
<text x="0.0" y="117.5" font-size="5.0" font-weight="bold" font-family="Helvetica Neue, Helvetica, Arial-Unicode, Arial, Sans-serif" fill="#000000">Created by M&#225;rcio Duarte</text><text x="0.0" y="122.5" font-size="5.0" font-weight="bold" font-family="Helvetica Neue, Helvetica, Arial-Unicode, Arial, Sans-serif" fill="#000000">from the Noun Project</text></svg>