<svg xmlns="http://www.w3.org/2000/svg" xmlns:xlink="http://www.w3.org/1999/xlink" version="1.1" id="Juggler" x="0px" y="0px" width="100px" height="100px" viewBox="5.0 -10.0 100.0 135.0" enable-background="new 0 0 100 100" xml:space="preserve">
<path id="Head" fill="#000000" d="M48.968,51.309c7.246,0,13.118-5.874,13.118-13.119c0-7.248-5.872-13.124-13.118-13.124  c-7.247,0-13.122,5.875-13.122,13.124C35.846,45.435,41.721,51.309,48.968,51.309L48.968,51.309z"/>
<path id="Torso" fill="#000000" d="M87.267,67.705c-3.158-0.989-6.523,0.768-7.514,3.923l-1.122,3.581L73.129,59.96  C72.273,57.583,70.02,56,67.492,56h-34.6c-2.066,0-3.986,1.064-5.082,2.817l-8.296,13.258l-1.381-10.851  c-0.418-3.282-3.426-5.614-6.703-5.188c-3.284,0.418-5.606,3.419-5.189,6.701l3.502,26.028c0.32,2.515,2.186,4.554,4.66,5.096  c2.474,0.539,5.024-0.524,6.368-2.673L30,76.338V96h36.949V78.142l6.439,17.866c0.855,2.382,3.114,3.96,5.636,3.96  c0.043,0,0.085,0,0.129-0.001c2.57-0.054,4.822-1.745,5.591-4.198l6.445-20.552C92.183,72.059,90.426,68.694,87.267,67.705z"/>
<path id="Object_2_" fill="#000000" d="M88.167,38.802c3.275,0,5.93,2.653,5.93,5.926c0,3.273-2.654,5.925-5.93,5.925  c-3.27,0-5.923-2.652-5.923-5.925C82.244,41.456,84.897,38.802,88.167,38.802z"/>
<rect id="Object_1_" x="50.593" y="1.244" transform="matrix(0.9597 -0.2812 0.2812 0.9597 0.4472 15.9364)" fill="#000000" width="10.331" height="10.331"/>
<polygon id="Object" fill="#000000" points="6,28.068 21.18,24.532 16.654,39.446 "/>
<text x="0.0" y="117.5" font-size="5.0" font-weight="bold" font-family="Helvetica Neue, Helvetica, Arial-Unicode, Arial, Sans-serif" fill="#000000">Created by Johan H. W. Basberg</text><text x="0.0" y="122.5" font-size="5.0" font-weight="bold" font-family="Helvetica Neue, Helvetica, Arial-Unicode, Arial, Sans-serif" fill="#000000">from the Noun Project</text></svg>